<svg fill="#f6efe5" role="img" aria-label="Sankeys" xmlns="http://www.w3.org/2000/svg" viewBox="0 0 284 240">
	<g id="shape">
		<path id="right" d="M96,48c-4.06,0-8.07.26-12,.75v127.25h12v64c53.02,0,96-42.98,96-96s-42.98-96-96-96Z"/>
		<path id="left" d="M96,64V0C42.98,0,0,42.98,0,96s42.98,96,96,96c4.06,0,8.07-.26,12-.75v-127.25h-12Z"/>
	</g>
	<g id="type">
		<path id="_1" d="M114.65,38.32c-2.01,0-3.87-.29-5.59-.88-1.71-.59-3.22-1.45-4.52-2.57-1.3-1.13-2.34-2.47-3.12-4.03-.78-1.56-1.26-3.33-1.43-5.3h6.03c.14,1.42.59,2.69,1.35,3.8.76,1.11,1.77,1.99,3.04,2.65,1.27.66,2.68.99,4.24.99s2.8-.22,3.92-.68c1.13-.45,2-1.08,2.62-1.9.62-.81.94-1.74.94-2.78,0-1.46-.47-2.61-1.4-3.46-.94-.85-2.11-1.48-3.53-1.9l-6.44-1.87c-1.66-.49-3.2-1.13-4.6-1.92-1.4-.8-2.53-1.87-3.38-3.22-.85-1.35-1.27-3.09-1.27-5.2,0-1.49.31-2.85.94-4.08s1.51-2.29,2.65-3.17c1.14-.88,2.5-1.57,4.08-2.05,1.57-.49,3.3-.73,5.17-.73s3.7.25,5.27.75c1.58.5,2.95,1.22,4.13,2.16,1.18.94,2.12,2.07,2.83,3.41.71,1.33,1.14,2.83,1.27,4.5h-5.98c-.28-1.56-1.07-2.87-2.36-3.93-1.3-1.06-3.02-1.59-5.17-1.59s-3.71.42-4.88,1.25c-1.18.83-1.77,1.98-1.77,3.43,0,1.28.43,2.28,1.3,2.99.87.71,1.97,1.27,3.33,1.69l6.55,1.87c1.73.49,3.32,1.14,4.75,1.95,1.44.81,2.58,1.93,3.43,3.35.85,1.42,1.27,3.29,1.27,5.62,0,2.18-.56,4.09-1.69,5.72-1.13,1.63-2.71,2.89-4.75,3.8-2.04.9-4.45,1.35-7.22,1.35Z"/>
		<path id="_2" d="M139.86,38.32c-1.8,0-3.4-.33-4.81-.99-1.4-.66-2.5-1.57-3.3-2.73-.8-1.16-1.2-2.5-1.2-4.03s.36-2.92,1.09-4.08c.73-1.16,1.78-2.1,3.17-2.81,1.39-.71,3.05-1.2,4.99-1.48l5.77-.78c.8-.1,1.39-.35,1.77-.73.38-.38.57-.88.57-1.51,0-1.18-.5-2.17-1.51-2.96-1.01-.8-2.39-1.2-4.16-1.2-1.63,0-2.99.41-4.08,1.22-1.09.81-1.71,1.97-1.84,3.46h-5.56c.21-1.87.81-3.5,1.79-4.89.99-1.39,2.3-2.45,3.95-3.2,1.64-.75,3.56-1.12,5.74-1.12s4.29.42,6,1.25,3.03,1.99,3.95,3.48,1.38,3.24,1.38,5.25v10.71c0,.76.16,1.31.47,1.64.31.33.76.49,1.35.49.17,0,.33,0,.47-.03s.26-.04.36-.08v4.68c-.31.03-.69.1-1.14.18-.45.09-.95.13-1.51.13-1.39,0-2.54-.35-3.46-1.04-.92-.69-1.45-1.77-1.58-3.22-.42.9-1.06,1.68-1.92,2.34-.87.66-1.87,1.16-3.01,1.51-1.14.35-2.39.52-3.74.52ZM140.74,33.9c2.29,0,4.08-.73,5.38-2.18,1.3-1.46,1.95-3.35,1.95-5.67v-.99l-7.33,1.2c-1.49.24-2.62.7-3.38,1.38-.76.68-1.14,1.59-1.14,2.73,0,1.04.42,1.89,1.25,2.55s1.92.99,3.27.99Z"/>
		<path id="_3" d="M159.3,37.91V10.92h5.66v4.58c.97-1.53,2.22-2.74,3.77-3.64,1.54-.9,3.26-1.35,5.17-1.35s3.59.4,5.07,1.2c1.47.8,2.61,1.92,3.43,3.35.81,1.44,1.22,3.13,1.22,5.07v17.78h-5.66v-16.54c0-1.7-.5-3.09-1.51-4.16-1.01-1.07-2.36-1.61-4.05-1.61-1.52,0-2.84.42-3.95,1.25-1.11.83-1.97,2.03-2.57,3.59-.61,1.56-.91,3.43-.91,5.62v11.86h-5.66Z"/>
		<path id="_4" d="M187.67,37.91V0h5.66v21.22l10.81-10.3h7.9l-11.17,10.5,12,16.48h-7.07l-8.89-12.69-3.59,3.33v9.36h-5.66Z"/>
		<path id="_5" d="M237.13,23.45c0-1.66-.27-3.28-.81-4.84-.54-1.56-1.34-2.95-2.42-4.16-1.07-1.21-2.41-2.18-4-2.89s-3.43-1.07-5.51-1.07-3.98.37-5.61,1.12c-1.63.75-3,1.78-4.11,3.09-1.11,1.32-1.94,2.8-2.49,4.45s-.83,3.39-.83,5.23.29,3.59.88,5.25c.59,1.66,1.45,3.15,2.57,4.45,1.13,1.3,2.52,2.33,4.18,3.09s3.55,1.14,5.66,1.14,4.1-.36,5.85-1.07,3.19-1.75,4.31-3.12c1.13-1.37,1.84-3.02,2.16-4.97h-5.56c-.31,1.39-1.08,2.45-2.29,3.2-1.21.75-2.65,1.12-4.31,1.12-2.39,0-4.31-.81-5.74-2.42-1.19-1.33-1.88-3.11-2.09-5.33h20.04c.07-1.01.1-1.77.1-2.29ZM217.21,21.27c.06-.3.14-.6.23-.88.35-1.14.84-2.11,1.48-2.91s1.42-1.41,2.34-1.85c.92-.43,1.96-.65,3.14-.65,1.35,0,2.5.27,3.46.81.95.54,1.71,1.28,2.26,2.24s.87,2.04.94,3.25h-13.84Z"/>
		<path id="_6" d="M256.6,10.92l-7.19,20.26-7.31-20.26h-5.77l10.63,27.16c-.44,1.13-.92,2.05-1.46,2.77-.61.81-1.3,1.39-2.08,1.74-.78.35-1.65.52-2.62.52-.66,0-1.22-.05-1.69-.16-.47-.1-.89-.21-1.27-.31v4.89c.31.1.66.19,1.04.26.38.07.77.13,1.17.18.4.05.81.08,1.22.08,1.42,0,2.66-.22,3.72-.65,1.06-.43,1.98-1.03,2.78-1.79.8-.76,1.48-1.64,2.05-2.63.57-.99,1.08-2.07,1.53-3.25l11.02-28.81h-5.77Z"/>
		<path id="_7" d="M273.24,38.32c-2.25,0-4.23-.42-5.92-1.25s-3.03-1.97-4-3.41c-.97-1.44-1.51-3.08-1.61-4.91h5.56c.07,1.18.65,2.25,1.74,3.22,1.09.97,2.5,1.46,4.24,1.46,1.49,0,2.69-.31,3.61-.94.92-.62,1.38-1.4,1.38-2.34s-.3-1.6-.91-2.11c-.61-.5-1.41-.86-2.42-1.07l-4.47-1.04c-1.32-.31-2.55-.76-3.69-1.35-1.14-.59-2.07-1.4-2.78-2.44-.71-1.04-1.07-2.39-1.07-4.06,0-1.42.41-2.7,1.22-3.85s1.95-2.05,3.4-2.73c1.46-.68,3.19-1.01,5.2-1.01,1.9,0,3.63.34,5.17,1.01,1.54.68,2.81,1.64,3.79,2.89s1.58,2.74,1.79,4.47h-5.56c-.14-1.18-.72-2.1-1.74-2.76-1.02-.66-2.17-.99-3.46-.99-1.21,0-2.21.26-2.99.78s-1.17,1.25-1.17,2.18c0,.73.29,1.33.88,1.82s1.35.83,2.29,1.04l4.47.99c1.46.31,2.77.75,3.95,1.3,1.18.55,2.11,1.37,2.81,2.44.69,1.08,1.04,2.51,1.04,4.32,0,1.56-.44,2.96-1.33,4.21s-2.13,2.24-3.74,2.99c-1.61.74-3.51,1.12-5.69,1.12Z"/>
	</g>
</svg>